<?xml version="1.0" encoding="UTF-8"?>
<svg version="1.1" xmlns="http://www.w3.org/2000/svg" width="1024" height="1024">
<path d="M0 0 C1.12649731 -0.00235223 2.25299463 -0.00470446 3.41362822 -0.00712797 C7.19774875 -0.01379806 10.98183479 -0.01336035 14.76596069 -0.01294994 C17.50287907 -0.01570307 20.23979472 -0.01993809 22.97671127 -0.02409142 C29.71607165 -0.033402 36.45542546 -0.03733687 43.19479147 -0.03961039 C51.26860204 -0.04257657 59.34240394 -0.05127655 67.41620995 -0.06002467 C86.9326067 -0.08085532 106.44900495 -0.09133753 125.96541023 -0.10015428 C135.20361985 -0.10436361 144.44182883 -0.10958528 153.68003792 -0.11483881 C185.32065651 -0.1327297 216.9612753 -0.14772358 248.60189819 -0.155159 C250.58786853 -0.15563375 252.57383887 -0.15610964 254.55980921 -0.15658666 C255.54464764 -0.15682303 256.52948607 -0.15705941 257.54416808 -0.15730295 C262.5336263 -0.15850411 267.52308451 -0.15971957 272.51254272 -0.16094494 C273.50270665 -0.16118509 274.49287058 -0.16142524 275.51303947 -0.16167267 C307.59404318 -0.16956012 339.67500985 -0.19298016 371.75599739 -0.22550088 C405.69492583 -0.259842 439.63383261 -0.27951419 473.5727787 -0.28280324 C477.30276109 -0.28322075 481.03274346 -0.28370031 484.76272583 -0.28422642 C486.14030793 -0.28441121 486.14030793 -0.28441121 487.54571997 -0.28459973 C502.29143275 -0.28692664 517.03710235 -0.30255834 531.78279977 -0.32306826 C546.62276042 -0.34338078 561.46266953 -0.34877803 576.30264151 -0.33929763 C585.10485739 -0.3341034 593.90690092 -0.3398611 602.7090918 -0.3618323 C608.606746 -0.37543312 614.5042828 -0.37418242 620.40193842 -0.36143034 C623.75075492 -0.35459447 627.09898106 -0.35592681 630.4478085 -0.37099043 C680.53120801 -0.58215123 728.42841809 15.24010316 766.14779663 48.77240467 C767.66563424 50.12014395 769.19819719 51.4495515 770.73226929 52.77875233 C806.55125811 84.24043928 829.39950387 131.91242994 833.68148804 179.13422108 C833.8222261 182.90743518 833.82109193 186.67721204 833.81570911 190.45273304 C833.81806134 191.57923035 833.82041357 192.70572767 833.82283708 193.86636126 C833.82950717 197.65048179 833.82906946 201.43456783 833.82865906 205.21869373 C833.83141219 207.95561211 833.8356472 210.69252776 833.83980054 213.42944431 C833.84911111 220.16880469 833.85304599 226.9081585 833.8553195 233.64752451 C833.85828569 241.72133508 833.86698566 249.79513698 833.87573378 257.86894299 C833.89656444 277.38533974 833.90704665 296.90173799 833.91586339 316.41814326 C833.92007272 325.65635289 833.92529439 334.89456187 833.93054792 344.13277096 C833.94843881 375.77338955 833.96343269 407.41400834 833.97086811 439.05463123 C833.97134286 441.04060157 833.97181875 443.02657191 833.97229577 445.01254225 C833.97265034 446.48979989 833.97265034 446.48979989 833.97301206 447.99690112 C833.97421323 452.98635934 833.97542869 457.97581755 833.97665405 462.96527576 C833.9768942 463.95543969 833.97713435 464.94560362 833.97738178 465.96577251 C833.98526923 498.04677622 834.00868927 530.12774289 834.04121 562.20873043 C834.07555111 596.14765887 834.09522331 630.08656565 834.09851235 664.02551174 C834.09892987 667.75549413 834.09940943 671.4854765 834.09993553 675.21545887 C834.10005872 676.13384693 834.10018191 677.052235 834.10030884 677.99845301 C834.10263575 692.74416579 834.11826745 707.48983539 834.13877738 722.23553281 C834.1590899 737.07549346 834.16448714 751.91540256 834.15500674 766.75537455 C834.14981252 775.55759043 834.15557022 784.35963396 834.17754142 793.16182484 C834.19114223 799.05947904 834.18989154 804.95701584 834.17713946 810.85467146 C834.17030358 814.20348796 834.17163592 817.5517141 834.18669955 820.90054154 C834.39786035 870.98394105 818.57560596 918.88115113 785.04330444 956.60052967 C783.69556516 958.11836728 782.36615762 959.65093023 781.03695679 961.18500233 C749.57526984 997.00399115 701.90327918 1019.85223691 654.68148804 1024.13422108 C650.90827393 1024.27495914 647.13849708 1024.27382497 643.36297607 1024.26844215 C642.23647876 1024.27079438 641.10998145 1024.27314661 639.94934785 1024.27557012 C636.16522732 1024.28224021 632.38114129 1024.2818025 628.59701538 1024.2813921 C625.86009701 1024.28414523 623.12318136 1024.28838024 620.3862648 1024.29253358 C613.64690442 1024.30184415 606.90755061 1024.30577903 600.16818461 1024.30805254 C592.09437403 1024.31101873 584.02057214 1024.3197187 575.94676612 1024.32846682 C556.43036937 1024.34929748 536.91397112 1024.35977969 517.39756585 1024.36859643 C508.15935622 1024.37280576 498.92114724 1024.37802743 489.68293816 1024.38328096 C458.04231956 1024.40117185 426.40170078 1024.41616573 394.76107788 1024.42360115 C392.77510754 1024.4240759 390.7891372 1024.42455179 388.80316687 1024.42502881 C387.81832844 1024.42526519 386.83349001 1024.42550156 385.81880799 1024.4257451 C380.82934977 1024.42694627 375.83989156 1024.42816173 370.85043335 1024.42938709 C369.86026942 1024.42962724 368.8701055 1024.42986739 367.8499366 1024.43011482 C335.7689329 1024.43800227 303.68796623 1024.46142231 271.60697868 1024.49394304 C237.66805025 1024.52828415 203.72914347 1024.54795635 169.79019737 1024.55124539 C166.06021499 1024.55166291 162.33023262 1024.55214247 158.60025024 1024.55266857 C157.22266815 1024.55285336 157.22266815 1024.55285336 155.81725611 1024.55304188 C141.07154333 1024.55536879 126.32587373 1024.57100049 111.58017631 1024.59151042 C96.74021565 1024.61182294 81.90030655 1024.61722018 67.06033456 1024.60773978 C58.25811868 1024.60254556 49.45607515 1024.60830326 40.65388427 1024.63027446 C34.75623007 1024.64387527 28.85869327 1024.64262458 22.96103766 1024.6298725 C19.61222115 1024.62303662 16.26399501 1024.62436896 12.91516757 1024.63943259 C-37.16823194 1024.85059339 -85.06544202 1009.028339 -122.78482056 975.49603748 C-124.30265816 974.1482982 -125.83522112 972.81889066 -127.36929321 971.48968983 C-163.18828203 940.02800288 -186.0365278 892.35601222 -190.31851196 845.13422108 C-190.45925003 841.36100697 -190.45811586 837.59123012 -190.45273304 833.81570911 C-190.45508527 832.6892118 -190.4574375 831.56271449 -190.45986101 830.40208089 C-190.4665311 826.61796036 -190.46609339 822.83387433 -190.46568298 819.04974842 C-190.46843611 816.31283005 -190.47267113 813.5759144 -190.47682446 810.83899784 C-190.48613504 804.09963746 -190.49006991 797.36028365 -190.49234343 790.62091765 C-190.49530961 782.54710707 -190.50400959 774.47330518 -190.51275771 766.39949916 C-190.53358836 746.88310241 -190.54407057 727.36670416 -190.55288732 707.85029889 C-190.55709665 698.61208926 -190.56231832 689.37388028 -190.56757185 680.1356712 C-190.58546274 648.4950526 -190.60045662 616.85443382 -190.60789204 585.21381092 C-190.60836679 583.22784058 -190.60884268 581.24187024 -190.6093197 579.25589991 C-190.60955607 578.27106148 -190.60979245 577.28622305 -190.61003599 576.27154103 C-190.61123715 571.28208281 -190.61245261 566.2926246 -190.61367798 561.30316639 C-190.61391813 560.31300246 -190.61415828 559.32283854 -190.61440571 558.30266964 C-190.62229316 526.22166594 -190.6457132 494.14069927 -190.67823392 462.05971172 C-190.71257504 428.12078329 -190.73224723 394.18187651 -190.73553628 360.24293041 C-190.73595379 356.51294803 -190.73643335 352.78296566 -190.73695946 349.05298328 C-190.73708265 348.13459522 -190.73720584 347.21620715 -190.73733277 346.26998915 C-190.73965968 331.52427637 -190.75529138 316.77860677 -190.7758013 302.03290935 C-190.79611382 287.19294869 -190.80151107 272.35303959 -190.79203067 257.5130676 C-190.78683644 248.71085172 -190.79259414 239.90880819 -190.81456534 231.10661731 C-190.82816616 225.20896311 -190.82691546 219.31142631 -190.81416338 213.4137707 C-190.80732751 210.06495419 -190.80865985 206.71672805 -190.82372347 203.36790061 C-191.03488427 153.2845011 -175.21262988 105.38729102 -141.68032837 67.66791248 C-140.33258909 66.15007488 -139.00318154 64.61751192 -137.67398071 63.08343983 C-104.08611704 24.84380838 -50.87953588 -0.0725397 0 0 Z " fill="#9B58D7" transform="translate(190.31851196289063,-0.13422107696533203)"/>
<path d="M0 0 C1.76307434 -0.00306328 3.52614557 -0.00920413 5.28919983 -0.01815796 C10.1402488 -0.03386003 14.99021641 -0.00576626 19.84112804 0.02927251 C25.15005245 0.05982489 30.4589265 0.04961121 35.76791477 0.04454708 C46.07507835 0.04082427 56.38181531 0.07315645 66.68886924 0.11805638 C78.61017238 0.16843484 90.53121888 0.17401837 102.45265198 0.17955017 C133.93021802 0.21631026 165.40768895 0.31403798 196.88514709 0.40428162 C267.19577209 0.54865662 337.50639709 0.69303162 409.94764709 0.84178162 C409.94764709 211.38178162 409.94764709 421.92178162 409.94764709 638.84178162 C339.98764709 638.84178162 270.02764709 638.84178162 197.94764709 638.84178162 C197.45264709 532.91178162 197.45264709 532.91178162 196.94764709 424.84178162 C193.97764709 428.14178162 191.00764709 431.44178162 187.94764709 434.84178162 C185.39383572 437.47564111 182.83130465 440.08594803 180.2308197 442.6721344 C179.50936362 443.39373934 178.78790755 444.11534427 178.04458916 444.85881603 C175.65901238 447.24370581 173.26989521 449.62501528 170.88075256 452.0063324 C169.15659129 453.72857186 167.4326595 455.4510411 165.7089386 457.17372131 C162.01257738 460.8669343 158.31472751 464.55864965 154.61555099 468.24904251 C149.2592049 473.59276439 143.90616144 478.93978521 138.55398108 484.28767906 C129.85704936 492.97756248 121.1582506 501.66557416 112.457901 510.35203552 C111.67876723 511.12992757 111.67876723 511.12992757 110.88389339 511.92353462 C107.19686083 515.60466658 103.50976119 519.28573133 99.82264709 522.96678162 C95.60726764 527.17523022 91.39192017 531.38371084 87.176651 535.5922699 C86.65726211 536.11083066 86.13787322 536.62939142 85.60274528 537.16366614 C76.93005639 545.82265002 68.25934593 554.48361242 59.59003365 563.1459769 C54.25333696 568.47820564 48.914875 573.80865514 43.57408334 579.13678239 C39.48117593 583.22023669 35.39083534 587.30625427 31.30141449 591.39319992 C29.62817498 593.06457145 27.95407322 594.7350803 26.27903366 596.40464783 C23.98719059 598.68924076 21.69849054 600.97693865 19.4105072 603.26539612 C18.75222927 603.92007909 18.09395134 604.57476206 17.41572559 605.24928391 C13.59933693 609.07411239 9.97407868 613.0142923 6.4508487 617.11118495 C4.52825095 619.32462142 2.50312577 621.41577033 0.43202209 623.49021912 C-0.34399353 624.2675238 -1.12000916 625.04482849 -1.91954041 625.84568787 C-2.70586853 626.6281488 -3.49219666 627.41060974 -4.30235291 628.21678162 C-5.10414978 629.02244568 -5.90594666 629.82810974 -6.73204041 630.65818787 C-7.50289978 631.42775818 -8.27375916 632.19732849 -9.06797791 632.99021912 C-9.7618158 633.68292908 -10.45565369 634.37563904 -11.17051697 635.08934021 C-15.48892767 639.11081815 -18.84425591 639.12238662 -24.4614563 639.08229065 C-25.32973267 639.0839995 -26.19800905 639.08570835 -27.09259683 639.08746898 C-30.01310303 639.09077321 -32.93338141 639.07974484 -35.85386658 639.0688324 C-37.94295242 639.06826848 -40.03203866 639.06858445 -42.12112427 639.06971741 C-47.80261812 639.0702927 -53.48402802 639.05850984 -59.16550231 639.04456949 C-65.09924252 639.03209152 -71.03298453 639.03089395 -76.96673584 639.02851868 C-88.20768257 639.02229527 -99.44859054 639.00587282 -110.68952018 638.9858197 C-123.48498782 638.96348746 -136.28045727 638.952474 -149.07593954 638.94242883 C-175.40143218 638.92150733 -201.72689037 638.88631465 -228.05235291 638.84178162 C-228.0752193 584.8607321 -228.09285114 530.87968307 -228.10341823 476.89862967 C-228.10466901 470.53218682 -228.10596332 464.16574398 -228.10728455 457.79930115 C-228.10754686 456.53180511 -228.10780917 455.26430906 -228.10807943 453.95840405 C-228.11243608 433.40913263 -228.1203236 412.85986399 -228.1295057 392.31059422 C-228.13884238 371.24037352 -228.14440854 350.17015428 -228.1464414 329.0999316 C-228.1478166 316.08833351 -228.15216702 303.07674329 -228.16026937 290.06514762 C-228.165537 281.15436183 -228.16715716 272.24358013 -228.16585428 263.33279289 C-228.16521093 258.18431227 -228.16622812 253.03584544 -228.17155838 247.88736725 C-228.17639559 243.18101299 -228.17668941 238.47468191 -228.1732518 233.76832663 C-228.17282643 232.0590152 -228.17411945 230.34970238 -228.17723609 228.64039375 C-228.18120606 226.33011432 -228.17911249 224.01992032 -228.17540073 221.70964241 C-228.17578045 220.42239049 -228.17616017 219.13513857 -228.1765514 217.80887902 C-228.05235291 214.84178162 -228.05235291 214.84178162 -227.05235291 212.84178162 C-226.39235291 212.84178162 -225.73235291 212.84178162 -225.05235291 212.84178162 C-224.78422791 212.20240662 -224.51610291 211.56303162 -224.23985291 210.90428162 C-223.05235291 208.84178162 -223.05235291 208.84178162 -220.05235291 207.84178162 C-219.72235291 206.85178162 -219.39235291 205.86178162 -219.05235291 204.84178162 C-218.39235291 204.84178162 -217.73235291 204.84178162 -217.05235291 204.84178162 C-217.05235291 204.18178162 -217.05235291 203.52178162 -217.05235291 202.84178162 C-216.39235291 202.84178162 -215.73235291 202.84178162 -215.05235291 202.84178162 C-214.78663325 202.25088367 -214.5209136 201.65998573 -214.24714184 201.05118179 C-213.01934287 198.78073956 -211.76003736 197.30539199 -209.93572998 195.49137878 C-209.29520691 194.84955154 -208.65468384 194.2077243 -207.99475098 193.54644775 C-207.29293198 192.85339035 -206.59111298 192.16033295 -205.86802673 191.4462738 C-205.1279538 190.70751511 -204.38788086 189.96875641 -203.62538147 189.20761108 C-201.17460867 186.76333518 -198.71694022 184.32611065 -196.25938416 181.88865662 C-194.55214467 180.18768961 -192.8454207 178.48620505 -191.13919067 176.78422546 C-186.63993458 172.29828436 -182.13515648 167.81793297 -177.62876892 163.3391571 C-170.43254059 156.18599427 -163.24289999 149.02622694 -156.05663109 141.86306 C-153.55148611 139.3680876 -151.04292507 136.87658868 -148.53399658 134.38542175 C-146.98376299 132.84202285 -145.43364219 131.29851063 -143.88365173 129.75486755 C-143.19195389 129.06990707 -142.50025604 128.38494659 -141.78759766 127.67922974 C-137.87135364 123.77205305 -134.1453684 119.75630196 -130.53907299 115.56077957 C-128.68005587 113.41131871 -126.73907852 111.36103955 -124.73985291 109.34178162 C-124.08372009 108.67146912 -123.42758728 108.00115662 -122.75157166 107.31053162 C-121.05235291 105.84178162 -121.05235291 105.84178162 -119.05235291 105.84178162 C-119.05235291 105.18178162 -119.05235291 104.52178162 -119.05235291 103.84178162 C-118.39235291 103.84178162 -117.73235291 103.84178162 -117.05235291 103.84178162 C-116.79211429 103.25636471 -116.53187567 102.6709478 -116.26375103 102.06779099 C-114.96991186 99.69029175 -113.58560089 98.13135725 -111.66998291 96.22563171 C-110.62084969 95.17454224 -110.62084969 95.17454224 -109.55052185 94.10221863 C-108.3996106 92.96444977 -108.3996106 92.96444977 -107.22544861 91.80369568 C-106.41710068 90.99666199 -105.60875275 90.1896283 -104.77590942 89.35813904 C-102.09787878 86.68660793 -99.41294685 84.02212036 -96.72813416 81.35740662 C-94.86395323 79.49949744 -93.00028742 77.64107128 -91.13711548 75.78215027 C-86.72584709 71.38226096 -82.30993569 66.98706575 -77.89196986 62.59390235 C-69.52926395 54.27808381 -61.17348924 45.9553211 -52.82190514 37.62833405 C-50.08408555 34.90069641 -47.34285266 32.17652434 -44.60125732 29.4526825 C-42.9094633 27.76772223 -41.21778162 26.08264916 -39.52622986 24.39744568 C-38.76907684 23.64703003 -38.01192383 22.89661438 -37.23182678 22.12345886 C-33.30523419 18.2052071 -29.54372974 14.21794835 -25.96928692 9.9745903 C-25.33669869 9.27076344 -24.70411047 8.56693657 -24.05235291 7.84178162 C-23.66580082 7.25696768 -23.27924873 6.67215374 -22.88098294 6.06961817 C-17.11202346 -1.43214993 -8.58130651 -0.10980213 0 0 Z " fill="#F0F2F5" transform="translate(421.05235290527344,192.15821838378906)"/>
<path d="M0 0 C140.58 0 281.16 0 426 0 C426 70.62 426 141.24 426 214 C285.42 214 144.84 214 0 214 C0 143.38 0 72.76 0 0 Z " fill="#F1F3F6" transform="translate(405,193)"/>
<path d="M0 0 C69.96 0 139.92 0 212 0 C212 139.92 212 279.84 212 424 C142.04 424 72.08 424 0 424 C0 284.08 0 144.16 0 0 Z " fill="#F6B413" transform="translate(619,407)"/>
<path d="M0 0 C70.62 0 141.24 0 214 0 C214 68.64 214 137.28 214 208 C143.38 208 72.76 208 0 208 C0 139.36 0 70.72 0 0 Z " fill="#9B57D7" transform="translate(405,407)"/>
<path d="M0 0 C0 70.62 0 141.24 0 214 C-69.63 214 -139.26 214 -211 214 C-211 213.34 -211 212.68 -211 212 C-210.34 212 -209.68 212 -209 212 C-208.731875 211.360625 -208.46375 210.72125 -208.1875 210.0625 C-207 208 -207 208 -204 207 C-203.67 206.01 -203.34 205.02 -203 204 C-202.34 204 -201.68 204 -201 204 C-201 203.34 -201 202.68 -201 202 C-200.34 202 -199.68 202 -199 202 C-198.73428035 201.40910206 -198.4685607 200.81820412 -198.19478893 200.20940018 C-196.96698997 197.93895795 -195.70768445 196.46361037 -193.88337708 194.64959717 C-193.242854 194.00776993 -192.60233093 193.36594269 -191.94239807 192.70466614 C-191.24057907 192.01160873 -190.53876007 191.31855133 -189.81567383 190.60449219 C-189.07560089 189.86573349 -188.33552795 189.12697479 -187.57302856 188.36582947 C-185.12225577 185.92155357 -182.66458731 183.48432903 -180.20703125 181.046875 C-178.49979176 179.345908 -176.7930678 177.64442343 -175.08683777 175.94244385 C-170.58758167 171.45650274 -166.08280357 166.97615135 -161.57641602 162.49737549 C-154.38018769 155.34421266 -147.19054709 148.18444532 -140.00427818 141.02127838 C-137.4991332 138.52630599 -134.99057216 136.03480707 -132.48164368 133.54364014 C-130.93141008 132.00024123 -129.38128929 130.45672902 -127.83129883 128.91308594 C-127.13960098 128.22812546 -126.44790314 127.54316498 -125.73524475 126.83744812 C-121.81900073 122.93027144 -118.0930155 118.91452034 -114.48672009 114.71899796 C-112.62770296 112.56953709 -110.68672561 110.51925793 -108.6875 108.5 C-108.03136719 107.8296875 -107.37523437 107.159375 -106.69921875 106.46875 C-105 105 -105 105 -103 105 C-103 104.34 -103 103.68 -103 103 C-102.34 103 -101.68 103 -101 103 C-100.73976138 102.41458309 -100.47952276 101.82916618 -100.21139812 101.22600937 C-98.91755895 98.84851013 -97.53324799 97.28957564 -95.61763 95.3838501 C-94.56849678 94.33276062 -94.56849678 94.33276062 -93.49816895 93.26043701 C-92.34725769 92.12266815 -92.34725769 92.12266815 -91.1730957 90.96191406 C-90.36474777 90.15488037 -89.55639984 89.34784668 -88.72355652 88.51635742 C-86.04552588 85.84482632 -83.36059394 83.18033875 -80.67578125 80.515625 C-78.81160032 78.65771583 -76.94793452 76.79928966 -75.08476257 74.94036865 C-70.67349418 70.54047935 -66.25758279 66.14528414 -61.83961695 61.75212073 C-53.47691105 53.43630219 -45.12113633 45.11353949 -36.76955223 36.78655243 C-34.03173264 34.0589148 -31.29049975 31.33474272 -28.54890442 28.61090088 C-26.85711039 26.92594062 -25.16542871 25.24086754 -23.47387695 23.55566406 C-22.71672394 22.80524841 -21.95957092 22.05483276 -21.17947388 21.28167725 C-17.10057721 17.21144493 -13.19933482 13.0482973 -9.44620037 8.67504501 C-7.74595108 6.70575075 -5.96874437 4.83524785 -4.125 3 C-3.26261719 2.13375 -3.26261719 2.13375 -2.3828125 1.25 C-1 0 -1 0 0 0 Z " fill="#F6B414" transform="translate(405,193)"/>
<path d="M0 0 C2.42600031 2.42600031 2.25055407 2.99656024 2.25299966 6.31543291 C2.25851915 7.22912251 2.26403864 8.14281212 2.26972538 9.0841893 C2.26561475 10.09655123 2.26150411 11.10891317 2.25726891 12.15195274 C2.26077498 13.22517934 2.26428105 14.29840593 2.26789337 15.40415454 C2.27728483 19.04303587 2.27226422 22.68175987 2.26742554 26.32064819 C2.2711579 28.9387731 2.27575775 31.5568969 2.28115618 34.17501891 C2.29148914 39.88934262 2.29429429 45.60363243 2.29224396 51.31796455 C2.28920249 59.8152494 2.29749892 68.31249653 2.30799321 76.80977405 C2.32736867 92.86657351 2.33296275 108.92336023 2.33410732 124.98017 C2.33502522 137.37664046 2.33913567 149.7731059 2.34550858 162.16957474 C2.34730357 165.73352388 2.3490832 169.29747303 2.35085833 172.86142218 C2.35152148 174.19030711 2.35152148 174.19030711 2.35219802 175.5460382 C2.36451216 200.47674866 2.37239856 225.40745737 2.37151146 250.33817101 C2.37146472 251.74904604 2.37146472 251.74904604 2.37141704 253.18842361 C2.37125082 257.9560589 2.37105274 262.72369419 2.37084763 267.49132948 C2.37080774 268.4382567 2.37076785 269.38518391 2.37072675 270.3608059 C2.37064587 272.27572466 2.37056228 274.19064342 2.37047596 276.10556218 C2.36925015 305.90600627 2.3842669 335.70640487 2.41162109 365.50683594 C2.44231611 398.96091565 2.45955515 432.41496547 2.45769465 465.86906016 C2.45754538 469.43363802 2.45744797 472.99821587 2.45738602 476.56279373 C2.45736271 477.44053159 2.4573394 478.31826946 2.45731538 479.22260544 C2.45725374 493.37192316 2.47004694 507.52120152 2.48725055 521.67050752 C2.50417202 535.88130224 2.5062083 550.09203912 2.4930319 564.30283831 C2.48561938 572.75374205 2.48936898 581.20447054 2.50891658 589.65535585 C2.52225784 595.9532785 2.51486846 602.25101232 2.49917014 608.54892595 C2.49607375 611.10612208 2.49983048 613.66333692 2.51089029 616.220511 C2.52486704 619.67944806 2.51453859 623.13746096 2.49777794 626.59636497 C2.5077143 627.60404458 2.51765066 628.61172419 2.52788812 629.64993954 C2.45837496 636.37105491 2.45837496 636.37105491 0.09106189 639.61929065 C-2.2008998 641.13265233 -3.32250934 641.49717668 -6.0422821 641.48774719 C-6.84136112 641.49469384 -7.64044014 641.50164049 -8.46373367 641.50879765 C-9.33510342 641.49598475 -10.20647316 641.48317186 -11.10424805 641.4699707 C-12.03356014 641.47213561 -12.96287224 641.47430052 -13.92034531 641.47653103 C-17.0344829 641.4787973 -20.14770301 641.45229728 -23.26171875 641.42578125 C-25.48169175 641.4212162 -27.7016688 641.41834524 -29.92164612 641.41705322 C-35.92826776 641.40824533 -41.93450459 641.37408424 -47.94099426 641.33476639 C-52.92923048 641.3051201 -57.91746511 641.2898077 -62.90576363 641.27481747 C-78.3358468 641.2282614 -93.76545898 641.13586848 -109.19521332 641.02676392 C-112.94192542 641.00040851 -116.68864307 640.97505213 -120.43536377 640.94995117 C-135.30961566 640.84933819 -150.18365459 640.73238123 -165.05759048 640.59249496 C-167.19147596 640.57244559 -169.32536426 640.55269464 -171.45925522 640.53323746 C-177.51489596 640.47780054 -183.57043486 640.41708491 -189.62592888 640.34737396 C-191.44990294 640.3269434 -193.27389514 640.30806511 -195.0979023 640.29084015 C-197.57088253 640.26698872 -200.04371163 640.23704969 -202.51660156 640.20532227 C-203.23870158 640.19956838 -203.9608016 640.19381449 -204.70478344 640.18788624 C-207.73891006 640.14285325 -210.09754544 639.96748485 -213 639 C-213 567.39 -213 495.78 -213 422 C-212.67 422 -212.34 422 -212 422 C-212 492.29 -212 562.58 -212 635 C-142.04 635 -72.08 635 0 635 C0 425.45 0 215.9 0 0 Z " fill="#8E50C4" transform="translate(831,196)"/>
<path d="M0 0 C0.33 0 0.66 0 1 0 C1 137.61 1 275.22 1 417 C70.96 417 140.92 417 213 417 C213 418.65 213 420.3 213 422 C209.82819165 423.58590417 206.41088544 423.14048146 202.92788696 423.13371277 C201.66161408 423.1371111 201.66161408 423.1371111 200.36975992 423.14057809 C197.52465048 423.14693749 194.67958844 423.14608749 191.83447266 423.14526367 C189.80128416 423.14825396 187.76809623 423.15165619 185.73490906 423.15544128 C180.19980844 423.16429893 174.66472328 423.16662014 169.12961626 423.16725707 C164.51463671 423.16820479 159.89966079 423.17188153 155.28468263 423.17542917 C144.39942198 423.18358051 133.5141696 423.18601279 122.62890625 423.18530273 C111.38746725 423.18470182 100.14607623 423.19525475 88.90464938 423.2110464 C79.26470895 423.22410747 69.62478424 423.22948723 59.98483503 423.22884732 C54.22232147 423.22859191 48.45985051 423.2314672 42.69734573 423.24202538 C37.27851786 423.25168222 31.85977352 423.25180216 26.44094276 423.24450874 C24.44949917 423.24345987 22.45805043 423.24584361 20.46661568 423.2518692 C17.75300459 423.25954952 15.03968483 423.25497067 12.32608032 423.24723816 C11.53366963 423.25238172 10.74125894 423.25752529 9.9248358 423.26282471 C5.81149954 423.23683329 3.78170148 422.89085074 0 421 C0 282.07 0 143.14 0 0 Z " fill="#8E50C6" transform="translate(192,414)"/>
<path d="M0 0 C0.33 0 0.66 0 1 0 C1 70.29 1 140.58 1 213 C70.63 213 140.26 213 212 213 C211.67 214.32 211.34 215.64 211 217 C141.37 217 71.74 217 0 217 C0 145.39 0 73.78 0 0 Z " fill="#7F48B0" transform="translate(618,618)"/>
<path d="M0 0 C70.62 0 141.24 0 214 0 C214 1.65 214 3.3 214 5 C143.38 4.67 72.76 4.34 0 4 C0 2.68 0 1.36 0 0 Z " fill="#7B45AB" transform="translate(405,407)"/>
<path d="M0 0 C69.63 0 139.26 0 211 0 C210.67 0.99 210.34 1.98 210 3 C140.7 3 71.4 3 0 3 C0 2.01 0 1.02 0 0 Z " fill="#BF8C0F" transform="translate(619,407)"/>
<path d="M0 0 C68.97 0 137.94 0 209 0 C208.34 0.99 207.68 1.98 207 3 C204.23902928 3.29428638 201.70220143 3.39110989 198.93893433 3.36076355 C198.09601369 3.36332682 197.25309305 3.3658901 196.38462937 3.36853105 C193.54382616 3.37349519 190.70354768 3.35693293 187.86279297 3.34057617 C185.83296725 3.33973047 183.80314061 3.34020393 181.77331543 3.34190369 C176.24873694 3.34276727 170.72435236 3.32508279 165.19981909 3.30418181 C159.43157264 3.28547545 153.66332215 3.28366935 147.89505005 3.28010559 C136.96570609 3.27076733 126.03645176 3.24612948 115.10714734 3.21605712 C102.66720513 3.18256847 90.22725874 3.16604105 77.78728271 3.15097082 C52.19147204 3.11958145 26.59574103 3.06678641 1 3 C0.67 2.01 0.34 1.02 0 0 Z " fill="#7844A7" transform="translate(194,831)"/>
<path d="M0 0 C0.33 0 0.66 0 1 0 C1 1.65 1 3.3 1 5 C-3.90409072 5.79693241 -8.56773798 6.12553499 -13.55174255 6.12698364 C-14.27991293 6.12854363 -15.0080833 6.13010362 -15.75831944 6.13171089 C-18.18191821 6.13567764 -20.60545357 6.13254785 -23.02905273 6.12939453 C-24.77437374 6.13075069 -26.51969447 6.13253183 -28.26501465 6.13470459 C-32.99953882 6.13925908 -37.73404116 6.13749598 -42.4685657 6.1343255 C-47.44747394 6.13178485 -52.42638038 6.13414482 -57.4052887 6.13571167 C-65.7839491 6.13753126 -74.1626007 6.13513555 -82.54125977 6.13037109 C-92.16859859 6.12495908 -101.79591614 6.12666955 -111.42325443 6.1321975 C-119.72603931 6.13677092 -128.02881786 6.1373578 -136.33160359 6.13475883 C-141.27306373 6.13321522 -146.21451397 6.13294817 -151.15597343 6.13629532 C-171.12828692 6.14803225 -191.05230859 6.12846053 -211 5 C-211 4.34 -211 3.68 -211 3 C-141.7 2.67 -72.4 2.34 -1 2 C-0.67 1.34 -0.34 0.68 0 0 Z " fill="#DCA211" transform="translate(830,407)"/>
<path d="M0 0 C0.66 0.66 1.32 1.32 2 2 C4.71165453 2.19769857 7.32128123 2.26923033 10.03414917 2.25396729 C11.29429673 2.25864726 11.29429673 2.25864726 12.57990181 2.26342177 C15.41124819 2.27143589 18.24238227 2.26506486 21.07373047 2.25878906 C23.09706753 2.26149745 25.1204036 2.26505752 27.14373779 2.26940918 C32.65200116 2.27855471 38.16018991 2.27497973 43.66845465 2.26865101 C49.42416433 2.2636008 55.17986747 2.26827986 60.93557739 2.27142334 C70.60501253 2.27506644 80.27441715 2.27025551 89.94384766 2.26074219 C101.13075994 2.24986314 112.3175993 2.25337786 123.50450981 2.264395 C133.09774554 2.27346543 142.69095929 2.27475415 152.28419793 2.26951766 C158.01876084 2.26639583 163.75328946 2.26599434 169.48785019 2.27259064 C174.88042113 2.2783597 180.27289793 2.2743752 185.66545868 2.26280212 C187.64722411 2.26015293 189.62899743 2.26092504 191.61075974 2.26532745 C194.31124205 2.27077422 197.01142069 2.26395923 199.71188354 2.25396729 C200.50040329 2.25842873 201.28892303 2.26289017 202.10133731 2.26748681 C205.88046492 2.24027469 208.79580365 2.12776773 212 0 C211.67 1.32 211.34 2.64 211 4 C141.7 4 72.4 4 1 4 C0.67 2.68 0.34 1.36 0 0 Z " fill="#844AB7" transform="translate(193,831)"/>
</svg>
