<?xml version="1.0" standalone="no"?>
<!DOCTYPE svg PUBLIC "-//W3C//DTD SVG 20010904//EN"
 "http://www.w3.org/TR/2001/REC-SVG-20010904/DTD/svg10.dtd">
<svg version="1.0" xmlns="http://www.w3.org/2000/svg"
 width="300.000000pt" height="300.000000pt" viewBox="0 0 300.000000 300.000000"
 preserveAspectRatio="xMidYMid meet">
<metadata>
Created by potrace 1.10, written by Peter Selinger 2001-2011
</metadata>
<g transform="translate(0.000000,300.000000) scale(0.100000,-0.100000)"
fill="#000000" stroke="none">
<path d="M398 2971 c-31 -10 -79 -31 -105 -47 -62 -36 -165 -134 -204 -195
-40 -64 -79 -174 -78 -224 1 -22 3 -31 6 -20 17 74 72 205 97 230 6 7 20 25
31 40 19 28 46 55 99 103 40 35 143 86 216 106 36 10 70 20 75 21 6 2 -10 4
-35 4 -25 0 -71 -8 -102 -18z"/>
<path d="M2485 2983 c38 -8 138 -44 169 -60 27 -14 54 -33 114 -78 24 -18 102
-100 102 -107 0 -4 6 -13 13 -20 23 -25 46 -75 76 -164 26 -75 31 -83 31 -53
1 135 -124 324 -275 418 -60 38 -163 71 -214 70 -20 -1 -27 -3 -16 -6z"/>
<path d="M1169 2430 c-25 -25 -28 -33 -19 -50 7 -14 10 -105 8 -278 l-3 -257
-263 -5 c-162 -3 -262 -1 -262 5 0 5 -5 4 -12 -3 -24 -24 -31 -11 -8 16 13 15
2 6 -23 -20 l-47 -47 3 -610 c1 -400 6 -614 12 -620 17 -17 626 -16 656 0 30
18 554 541 571 571 11 19 14 -24 18 -272 l5 -295 5 312 c5 310 5 311 -15 295
-11 -9 -150 -149 -310 -310 l-290 -293 -313 0 -313 0 -2 621 -2 620 310 2 310
3 2 310 2 310 623 3 623 2 0 -315 0 -315 -622 0 -623 0 0 -305 0 -305 310 0
310 0 0 293 0 292 315 0 316 0 9 36 c15 56 8 605 -8 621 -10 10 -146 14 -628
16 l-615 2 -30 -30z m631 -931 c0 -256 -2 -290 -15 -285 -8 3 -139 6 -290 6
-169 1 -273 5 -270 11 4 5 1 9 -4 9 -8 0 -11 88 -11 275 l0 275 295 0 295 0 0
-291z"/>
<path d="M1815 560 c-4 -7 100 -10 304 -10 196 0 312 4 316 10 4 7 -100 10
-304 10 -196 0 -312 -4 -316 -10z"/>
<path d="M11 499 c-1 -51 32 -154 70 -214 95 -152 287 -278 418 -274 21 1 28
3 16 6 -97 24 -199 68 -233 100 -7 7 -17 13 -22 13 -8 0 -81 70 -106 102 -66
83 -116 185 -137 283 -3 11 -5 4 -6 -16z"/>
<path d="M2977 497 c-21 -102 -91 -228 -170 -310 -52 -53 -177 -126 -252 -148
-38 -12 -74 -22 -80 -24 -5 -2 6 -4 26 -4 132 -3 323 122 418 274 39 61 74
171 69 217 l-3 33 -8 -38z"/>
</g>
</svg>
